<svg xmlns="http://www.w3.org/2000/svg" xmlns:xlink="http://www.w3.org/1999/xlink" width="1920" height="104" viewBox="0 0 1920 104" fill="none"><rect x="0" y="0" width="0" height="0" fill="rgba(249, 249, 249, 1)" /><g opacity="1"  transform="translate(0 0)  rotate(0)"><g opacity="1"  transform="translate(604 0)  rotate(0)"><path id="矩形" fill-rule="evenodd" fill="url(#linear_0)" opacity="1" d="M648.19 52.9L668.94 52.9L713 0L0 0L42.28 52.9L62.1 52.9L94.04 94L116.65 94L128.2 80.23C225.31 80.23 578.96 80.23 578.96 80.23L590.08 94L615.11 94L648.19 52.9Z"></path><path id="矩形" style="fill:url(#linear_1); opacity:100" d="M648.19,48.9h20.75v4l-3.074,-2.5599l44.06,-52.90004l3.074,2.55994v4h-713v-4l3.12463,-2.49734l42.27997,52.90004l-3.1246,2.4973v-4h21.7773l33.1411,42.6455l-3.1584,2.4545v-4h22.61v4l-3.065,-2.5706l12.749,-15.1994h1.866h-1.866h215.04h239.497l12.321,15.2569l-3.112,2.5131v-4h25.03v4l-3.116,-2.508l34.281,-42.592zM648.19,56.9v-4l3.116,2.508l-34.281,42.592h-28.856l-12.321,-15.2569l3.112,-2.5131v4h-237.586h-213.174v-4v4v-4l3.065,2.5706l-12.749,15.1994h-26.4333l-33.1411,-42.6455l3.1584,-2.4545v4h-21.7436l-48.67399,-60.9h729.85459l-50.723,60.9z"></path><path id="矩形" fill-rule="evenodd" style="fill:#1561BA" opacity="1" d="M144 94L568 94L568 94C568 92.41 567.37 90.88 566.24 89.76C565.12 88.63 563.59 88 562 88L150 88C148.41 88 146.88 88.63 145.76 89.76C144.63 90.88 144 92.41 144 94Z"></path></g><g opacity="1"  transform="translate(0 0)  rotate(0)"><g opacity="1"  transform="translate(0 0)  rotate(0)"><path id="矩形" fill-rule="evenodd" fill="url(#linear_2)" opacity="1" d="M0.828125 0L0.828125 23L333.178 23L368.158 60L630.998 60L630.998 50.47L592.498 0L0.828125 0Z"></path><path id="矩形" fill-rule="evenodd" fill="url(#linear_3)" opacity="1" d="M308 20L308 38L590 38L577.56 20L308 20Z"></path><path id="路径 5" style="fill:url(#linear_4); opacity:100" d="M617.806,39.5602l-28.74,-37.65005l1.192,-0.91015v1.5h-589.46015c-0.04913,0 -0.09814,-0.00241 -0.14703,-0.00722c-0.04889,-0.00482 -0.09743,-0.01202 -0.14561,-0.0216c-0.04818,-0.00959 -0.09578,-0.02151 -0.14279,-0.03577c-0.04701,-0.01426 -0.09321,-0.03079 -0.1386,-0.04959c-0.04539,-0.0188 -0.08974,-0.03978 -0.13307,-0.06294c-0.04333,-0.02316 -0.08541,-0.04839 -0.12626,-0.07568c-0.04085,-0.02729 -0.08026,-0.05652 -0.11823,-0.08768c-0.03798,-0.03117 -0.07433,-0.06412 -0.10907,-0.09886c-0.03474,-0.03474 -0.06769,-0.0711 -0.09885,-0.10907c-0.03117,-0.03797 -0.0604,-0.07738 -0.08769,-0.11823c-0.02729,-0.04085 -0.05252,-0.08294 -0.07568,-0.12626c-0.02316,-0.04333 -0.04414,-0.08768 -0.06294,-0.13307c-0.0188,-0.04539 -0.03533,-0.09159 -0.04959,-0.1386c-0.01426,-0.04701 -0.02618,-0.09461 -0.03577,-0.14279c-0.00958,-0.04819 -0.01678,-0.09672 -0.0216,-0.14561c-0.00481,-0.04889 -0.00722,-0.0979 -0.00722,-0.14703c0,-0.04913 0.00241,-0.09814 0.00722,-0.14703c0.00482,-0.04889 0.01202,-0.09743 0.0216,-0.14561c0.00958,-0.04818 0.02151,-0.09578 0.03577,-0.14279c0.01426,-0.04701 0.03079,-0.09321 0.04959,-0.1386c0.0188,-0.04539 0.03978,-0.08974 0.06294,-0.13307c0.02316,-0.04333 0.04838,-0.08541 0.07568,-0.12626c0.02729,-0.04085 0.05652,-0.08026 0.08769,-0.11823c0.03117,-0.03798 0.06412,-0.07433 0.09885,-0.10907c0.03474,-0.03474 0.0711,-0.06769 0.10907,-0.09886c0.03798,-0.03117 0.07739,-0.06039 0.11823,-0.08769c0.04085,-0.02729 0.08293,-0.05252 0.12626,-0.07568c0.04333,-0.02316 0.08768,-0.04414 0.13307,-0.06294c0.04539,-0.0188 0.09159,-0.03533 0.1386,-0.04959c0.04701,-0.01426 0.09461,-0.02618 0.14279,-0.03577c0.04818,-0.00958 0.09672,-0.01678 0.14561,-0.0216c0.04889,-0.00482 0.0979,-0.00722 0.14703,-0.00722h590.20215l29.19,38.2398c0.03,0.03907 0.058,0.0795 0.084,0.1213c0.02533,0.0418 0.049,0.08473 0.071,0.1288c0.02133,0.04413 0.04067,0.08923 0.058,0.1353c0.01733,0.046 0.03233,0.09273 0.045,0.1402c0.01267,0.04747 0.02267,0.09547 0.03,0.144c0.008,0.04847 0.01367,0.0972 0.017,0.1462c0.00333,0.04907 0.004,0.09813 0.002,0.1472c-0.002,0.04913 -0.00633,0.09803 -0.013,0.1467c-0.006,0.04873 -0.01467,0.097 -0.026,0.1448c-0.01133,0.0478 -0.025,0.09493 -0.041,0.1414c-0.016,0.04647 -0.034,0.09207 -0.054,0.1368c-0.02067,0.04467 -0.04333,0.08827 -0.068,0.1308c-0.02467,0.04247 -0.05133,0.08363 -0.08,0.1235c-0.02867,0.03987 -0.05933,0.0782 -0.092,0.115c-0.03267,0.03687 -0.06667,0.07207 -0.102,0.1056c-0.036,0.03347 -0.07367,0.0651 -0.113,0.0949c-0.03933,0.0298 -0.07967,0.05763 -0.121,0.0835c-0.042,0.0258 -0.085,0.04953 -0.129,0.0712c-0.044,0.0216 -0.089,0.041 -0.135,0.0582c-0.046,0.0172 -0.093,0.0321 -0.141,0.0447c-0.04733,0.0126 -0.095,0.02283 -0.143,0.0307c-0.04867,0.00787 -0.09767,0.01333 -0.147,0.0164c-0.04867,0.00313 -0.09767,0.00383 -0.147,0.0021c-0.04933,-0.00173 -0.09833,-0.00587 -0.147,-0.0124c-0.04867,-0.00653 -0.09667,-0.01543 -0.144,-0.0267c-0.048,-0.01133 -0.09533,-0.02493 -0.142,-0.0408c-0.04667,-0.01593 -0.09233,-0.0341 -0.137,-0.0545c-0.04467,-0.02033 -0.088,-0.04287 -0.13,-0.0676c-0.04267,-0.02467 -0.084,-0.05133 -0.124,-0.08c-0.04,-0.02873 -0.07833,-0.05933 -0.115,-0.0918c-0.03667,-0.03253 -0.07167,-0.06677 -0.105,-0.1027c-0.034,-0.03593 -0.06567,-0.0734 -0.095,-0.1124z"></path><path id="路径 6" style="fill:url(#linear_5); opacity:100" d="M628.644,61.5l-263,-0.5c-0.04933,-0.00007 -0.09833,-0.00257 -0.147,-0.0075c-0.04933,-0.00493 -0.098,-0.01223 -0.146,-0.0219c-0.048,-0.00967 -0.09567,-0.02167 -0.143,-0.036c-0.04667,-0.01433 -0.09267,-0.03097 -0.138,-0.0499c-0.04533,-0.01887 -0.08967,-0.03993 -0.133,-0.0632c-0.04333,-0.0232 -0.08533,-0.0485 -0.126,-0.0759c-0.04067,-0.02733 -0.08,-0.05663 -0.118,-0.0879c-0.038,-0.03127 -0.07433,-0.0643 -0.109,-0.0991c-0.03467,-0.0348 -0.06767,-0.0712 -0.099,-0.1092c-0.03133,-0.03807 -0.06033,-0.07753 -0.087,-0.1184c-0.02733,-0.04093 -0.05267,-0.08307 -0.076,-0.1264c-0.02267,-0.0434 -0.04333,-0.0878 -0.062,-0.1332c-0.01933,-0.0454 -0.036,-0.09163 -0.05,-0.1387c-0.014,-0.04707 -0.02567,-0.0947 -0.035,-0.1429c-0.00933,-0.0482 -0.01667,-0.09673 -0.022,-0.1456c-0.00467,-0.04893 -0.007,-0.09797 -0.007,-0.1471c0.00067,-0.04907 0.00333,-0.09807 0.008,-0.147c0.00467,-0.04887 0.012,-0.09737 0.022,-0.1455c0.00933,-0.0482 0.02133,-0.0958 0.036,-0.1428c0.014,-0.04693 0.03067,-0.0931 0.05,-0.1385c0.01867,-0.04533 0.03967,-0.08963 0.063,-0.1329c0.02333,-0.04327 0.04867,-0.0853 0.076,-0.1261c0.02733,-0.0408 0.05667,-0.08017 0.088,-0.1181c0.03133,-0.03793 0.06433,-0.07423 0.099,-0.1089c0.03467,-0.03467 0.071,-0.06753 0.109,-0.0986c0.038,-0.03113 0.07733,-0.0603 0.118,-0.0875c0.04133,-0.0272 0.08367,-0.05233 0.127,-0.0754c0.04333,-0.02307 0.08767,-0.04397 0.133,-0.0627c0.04533,-0.01873 0.09167,-0.03517 0.139,-0.0493c0.04667,-0.0142 0.09433,-0.02603 0.143,-0.0355c0.048,-0.00953 0.09633,-0.01667 0.145,-0.0214c0.04933,-0.00467 0.09833,-0.00697 0.147,-0.0069l263,0.5c0.04933,0.00007 0.09833,0.00257 0.147,0.0075c0.04933,0.00493 0.098,0.01223 0.146,0.0219c0.048,0.00967 0.09567,0.02167 0.143,0.036c0.04667,0.01433 0.09267,0.03097 0.138,0.0499c0.04533,0.01887 0.08967,0.03993 0.133,0.0632c0.04333,0.0232 0.08533,0.0485 0.126,0.0759c0.04067,0.02733 0.08,0.05663 0.118,0.0879c0.038,0.03127 0.07433,0.0643 0.109,0.0991c0.03467,0.0348 0.06767,0.0712 0.099,0.1092c0.03067,0.03807 0.05967,0.07753 0.087,0.1184c0.02733,0.04093 0.05267,0.08307 0.076,0.1264c0.02267,0.0434 0.04333,0.0878 0.062,0.1332c0.01867,0.0454 0.03533,0.09163 0.05,0.1387c0.014,0.04707 0.02567,0.0947 0.035,0.1429c0.00933,0.0482 0.01667,0.09673 0.022,0.1456c0.00467,0.04893 0.00667,0.09797 0.006,0.1471c0,0.04907 -0.00233,0.09807 -0.007,0.147c-0.00467,0.04887 -0.012,0.09737 -0.022,0.1455c-0.00933,0.0482 -0.02133,0.0958 -0.036,0.1428c-0.014,0.04693 -0.03067,0.0931 -0.05,0.1385c-0.01867,0.04533 -0.03967,0.08963 -0.063,0.1329c-0.02333,0.04327 -0.04867,0.0853 -0.076,0.1261c-0.02733,0.0408 -0.05667,0.08017 -0.088,0.1181c-0.03133,0.03793 -0.06433,0.07423 -0.099,0.1089c-0.03467,0.03467 -0.071,0.06753 -0.109,0.0986c-0.038,0.03113 -0.07767,0.0603 -0.119,0.0875c-0.04067,0.0272 -0.08267,0.05233 -0.126,0.0754c-0.04333,0.02307 -0.08767,0.04397 -0.133,0.0627c-0.04533,0.01873 -0.09167,0.03517 -0.139,0.0493c-0.04667,0.0142 -0.09433,0.02603 -0.143,0.0355c-0.048,0.00953 -0.09633,0.01667 -0.145,0.0214c-0.04933,0.00467 -0.09833,0.00697 -0.147,0.0069z"></path><path  id="路径 7" style="fill:#05274F; opacity:1;" d="M609.396,50.6919l-67,0.3081c-0.04933,0.0002 -0.09833,-0.002 -0.147,-0.0066c-0.04933,-0.00453 -0.098,-0.0115 -0.146,-0.0209c-0.04867,-0.00933 -0.09633,-0.02103 -0.143,-0.0351c-0.04733,-0.01407 -0.09367,-0.0304 -0.139,-0.049c-0.04533,-0.0186 -0.08967,-0.03937 -0.133,-0.0623c-0.044,-0.02293 -0.08633,-0.04797 -0.127,-0.0751c-0.04067,-0.02707 -0.08033,-0.0561 -0.119,-0.0871c-0.038,-0.031 -0.07433,-0.0638 -0.109,-0.0984c-0.03467,-0.03453 -0.068,-0.07073 -0.1,-0.1086c-0.03133,-0.0378 -0.06067,-0.07707 -0.088,-0.1178c-0.02733,-0.04073 -0.05267,-0.0827 -0.076,-0.1259c-0.02333,-0.04327 -0.04467,-0.08753 -0.064,-0.1328c-0.01867,-0.04533 -0.03533,-0.09147 -0.05,-0.1384c-0.01467,-0.04693 -0.02667,-0.09447 -0.036,-0.1426c-0.01,-0.04813 -0.01733,-0.09663 -0.022,-0.1455c-0.00533,-0.04887 -0.008,-0.09787 -0.008,-0.147c-0.00067,-0.04913 0.00133,-0.09817 0.006,-0.1471c0.00467,-0.04887 0.01167,-0.09743 0.021,-0.1457c0.00933,-0.0482 0.021,-0.09583 0.035,-0.1429c0.014,-0.04707 0.03033,-0.09337 0.049,-0.1389c0.01867,-0.04547 0.03933,-0.0899 0.062,-0.1333c0.02333,-0.04347 0.04867,-0.08567 0.076,-0.1266c0.02667,-0.041 0.05567,-0.08057 0.087,-0.1187c0.03067,-0.03807 0.06333,-0.07457 0.098,-0.1095c0.03467,-0.03487 0.071,-0.06797 0.109,-0.0993c0.03733,-0.03133 0.07667,-0.06077 0.118,-0.0883c0.04067,-0.02747 0.08233,-0.05287 0.125,-0.0762c0.04333,-0.0234 0.08767,-0.0446 0.133,-0.0636c0.04533,-0.019 0.09167,-0.03573 0.139,-0.0502c0.04667,-0.01447 0.094,-0.0266 0.142,-0.0364c0.048,-0.0098 0.09667,-0.01723 0.146,-0.0223c0.04867,-0.005 0.09767,-0.00763 0.147,-0.0079l67,-0.3081c0.04867,-0.0002 0.09767,0.002 0.147,0.0066c0.04867,0.00453 0.097,0.0115 0.145,0.0209c0.04867,0.00933 0.09667,0.02103 0.144,0.0351c0.04667,0.01407 0.09267,0.03037 0.138,0.0489c0.046,0.0186 0.09067,0.0394 0.134,0.0624c0.04333,0.02293 0.08533,0.04797 0.126,0.0751c0.04133,0.02707 0.081,0.0561 0.119,0.0871c0.038,0.031 0.07433,0.0638 0.109,0.0984c0.03533,0.03453 0.06867,0.07073 0.1,0.1086c0.03133,0.0378 0.06067,0.07707 0.088,0.1178c0.02733,0.04073 0.05267,0.0827 0.076,0.1259c0.02333,0.04327 0.04467,0.08753 0.064,0.1328c0.01867,0.04533 0.03533,0.09147 0.05,0.1384c0.01467,0.04693 0.02667,0.09447 0.036,0.1426c0.01,0.04813 0.01767,0.09663 0.023,0.1455c0.00467,0.04887 0.00733,0.09787 0.008,0.147c0,0.04913 -0.00233,0.09817 -0.007,0.1471c-0.00467,0.04887 -0.01167,0.09743 -0.021,0.1457c-0.00933,0.0482 -0.021,0.09583 -0.035,0.1429c-0.014,0.04707 -0.03033,0.09333 -0.049,0.1388c-0.01867,0.04553 -0.03933,0.09 -0.062,0.1334c-0.02333,0.0434 -0.04833,0.0856 -0.075,0.1266c-0.02733,0.041 -0.05633,0.08053 -0.087,0.1186c-0.03133,0.03813 -0.06433,0.07467 -0.099,0.1096c-0.03467,0.03487 -0.07067,0.06797 -0.108,0.0993c-0.038,0.03133 -0.07733,0.06073 -0.118,0.0882c-0.04067,0.02753 -0.08267,0.05297 -0.126,0.0763c-0.04333,0.02333 -0.08767,0.04453 -0.133,0.0636c-0.04533,0.019 -0.09133,0.03573 -0.138,0.0502c-0.04733,0.01447 -0.095,0.0266 -0.143,0.0364c-0.048,0.0098 -0.09667,0.01723 -0.146,0.0223c-0.04867,0.005 -0.09733,0.00763 -0.146,0.0079z"></path><path  id="路径 7" style="fill:#182C4F; opacity:1;" d="M519.258,50.6919l-56,0.3081c-0.04867,0.00027 -0.09767,-0.00187 -0.147,-0.0064c-0.04867,-0.0046 -0.09733,-0.01153 -0.146,-0.0208c-0.048,-0.00933 -0.09567,-0.021 -0.143,-0.035c-0.04667,-0.014 -0.09267,-0.03027 -0.138,-0.0488c-0.046,-0.0186 -0.09067,-0.03937 -0.134,-0.0623c-0.04333,-0.02287 -0.08567,-0.04783 -0.127,-0.0749c-0.04067,-0.02707 -0.08,-0.0561 -0.118,-0.0871c-0.038,-0.03093 -0.07467,-0.06367 -0.11,-0.0982c-0.03467,-0.03453 -0.06767,-0.0707 -0.099,-0.1085c-0.03133,-0.03787 -0.061,-0.07713 -0.089,-0.1178c-0.02733,-0.04067 -0.05267,-0.0826 -0.076,-0.1258c-0.02333,-0.0432 -0.04467,-0.08747 -0.064,-0.1328c-0.01867,-0.04527 -0.03533,-0.09137 -0.05,-0.1383c-0.01467,-0.04693 -0.027,-0.09447 -0.037,-0.1426c-0.00933,-0.04813 -0.01667,-0.09663 -0.022,-0.1455c-0.00533,-0.04887 -0.008,-0.09783 -0.008,-0.1469c0,-0.04913 0.002,-0.09817 0.006,-0.1471c0.00467,-0.04893 0.01167,-0.0975 0.021,-0.1457c0.00933,-0.04827 0.021,-0.09593 0.035,-0.143c0.014,-0.04713 0.03033,-0.09343 0.049,-0.1389c0.01867,-0.04547 0.03933,-0.08993 0.062,-0.1334c0.02333,-0.04347 0.04833,-0.0857 0.075,-0.1267c0.02733,-0.041 0.05633,-0.08057 0.087,-0.1187c0.03133,-0.03813 0.064,-0.07467 0.098,-0.1096c0.03467,-0.03493 0.071,-0.0681 0.109,-0.0995c0.038,-0.03133 0.07733,-0.06077 0.118,-0.0883c0.04067,-0.02753 0.08267,-0.053 0.126,-0.0764c0.04267,-0.0234 0.08667,-0.0446 0.132,-0.0636c0.04533,-0.01907 0.09167,-0.03587 0.139,-0.0504c0.04667,-0.01453 0.094,-0.0267 0.142,-0.0365c0.048,-0.00987 0.09667,-0.01733 0.146,-0.0224c0.04867,-0.00513 0.09767,-0.00783 0.147,-0.0081l56,-0.3081c0.04867,-0.00027 0.09767,0.00187 0.147,0.0064c0.04867,0.0046 0.09733,0.01153 0.146,0.0208c0.048,0.00933 0.09567,0.021 0.143,0.035c0.04667,0.014 0.09267,0.03027 0.138,0.0488c0.046,0.0186 0.09067,0.03933 0.134,0.0622c0.04333,0.02293 0.08533,0.04793 0.126,0.075c0.04133,0.02707 0.081,0.0561 0.119,0.0871c0.038,0.03093 0.07467,0.06367 0.11,0.0982c0.03467,0.03453 0.06767,0.0707 0.099,0.1085c0.03133,0.0378 0.061,0.07707 0.089,0.1178c0.02733,0.04067 0.05267,0.0826 0.076,0.1258c0.02333,0.0432 0.04467,0.08747 0.064,0.1328c0.01867,0.04527 0.03533,0.09137 0.05,0.1383c0.01467,0.04693 0.027,0.09447 0.037,0.1426c0.00933,0.04813 0.01667,0.09663 0.022,0.1455c0.00533,0.04887 0.008,0.09783 0.008,0.1469c0,0.04913 -0.002,0.09817 -0.006,0.1471c-0.00467,0.04893 -0.01167,0.0975 -0.021,0.1457c-0.00933,0.04827 -0.021,0.09593 -0.035,0.143c-0.014,0.04713 -0.03033,0.09343 -0.049,0.1389c-0.01867,0.04547 -0.03933,0.08993 -0.062,0.1334c-0.02333,0.04347 -0.04833,0.0857 -0.075,0.1267c-0.02733,0.041 -0.05633,0.08057 -0.087,0.1187c-0.03133,0.03813 -0.06433,0.07467 -0.099,0.1096c-0.034,0.03493 -0.07,0.0681 -0.108,0.0995c-0.038,0.03133 -0.07733,0.06077 -0.118,0.0883c-0.04067,0.02753 -0.08267,0.053 -0.126,0.0764c-0.04267,0.0234 -0.08667,0.0446 -0.132,0.0636c-0.04533,0.01907 -0.09167,0.03587 -0.139,0.0504c-0.04667,0.01453 -0.094,0.0267 -0.142,0.0365c-0.048,0.00987 -0.09667,0.01733 -0.146,0.0224c-0.04867,0.00513 -0.09767,0.00783 -0.147,0.0081z"></path><path id="路径 8" style="fill:url(#linear_6); opacity:100" d="M438.824,50.6919l-81,0.3081c-0.04933,0.0002 -0.09833,-0.00203 -0.147,-0.0067c-0.04867,-0.0046 -0.09733,-0.0116 -0.146,-0.021c-0.048,-0.0094 -0.09567,-0.02113 -0.143,-0.0352c-0.04667,-0.01413 -0.09267,-0.0305 -0.138,-0.0491c-0.046,-0.01867 -0.09067,-0.03947 -0.134,-0.0624c-0.04333,-0.023 -0.08533,-0.04807 -0.126,-0.0752c-0.04133,-0.02713 -0.081,-0.05623 -0.119,-0.0873c-0.038,-0.031 -0.07433,-0.0638 -0.109,-0.0984c-0.03533,-0.0346 -0.06867,-0.07083 -0.1,-0.1087c-0.03067,-0.03787 -0.06,-0.07717 -0.088,-0.1179c-0.02733,-0.04073 -0.05267,-0.08273 -0.076,-0.126c-0.02333,-0.0432 -0.04433,-0.08747 -0.063,-0.1328c-0.01933,-0.04533 -0.036,-0.09147 -0.05,-0.1384c-0.01467,-0.047 -0.027,-0.09457 -0.037,-0.1427c-0.00933,-0.04813 -0.01667,-0.09663 -0.022,-0.1455c-0.00467,-0.04887 -0.00733,-0.09787 -0.008,-0.147c0,-0.04913 0.00233,-0.09813 0.007,-0.147c0.00467,-0.04893 0.01167,-0.0975 0.021,-0.1457c0.00933,-0.04827 0.021,-0.09593 0.035,-0.143c0.014,-0.04707 0.03033,-0.09333 0.049,-0.1388c0.01867,-0.0454 0.03967,-0.08983 0.063,-0.1333c0.02267,-0.0434 0.04767,-0.08557 0.075,-0.1265c0.02733,-0.04093 0.05633,-0.08047 0.087,-0.1186c0.03133,-0.03807 0.06433,-0.07453 0.099,-0.1094c0.03467,-0.03487 0.07067,-0.06797 0.108,-0.0993c0.038,-0.03133 0.07733,-0.0607 0.118,-0.0881c0.04067,-0.02747 0.08267,-0.05287 0.126,-0.0762c0.04333,-0.02333 0.08767,-0.04447 0.133,-0.0634c0.04533,-0.019 0.09133,-0.0357 0.138,-0.0501c0.04733,-0.01447 0.095,-0.0266 0.143,-0.0364c0.048,-0.00973 0.09667,-0.0171 0.146,-0.0221c0.04867,-0.005 0.09767,-0.0076 0.147,-0.0078l81,-0.3081c0.04867,-0.0002 0.09767,0.00203 0.147,0.0067c0.04867,0.0046 0.097,0.0116 0.145,0.021c0.04867,0.0094 0.09633,0.02113 0.143,0.0352c0.04733,0.01413 0.09367,0.0305 0.139,0.0491c0.04533,0.0186 0.08967,0.0394 0.133,0.0624c0.044,0.023 0.08633,0.04807 0.127,0.0752c0.04067,0.02713 0.08033,0.05623 0.119,0.0873c0.038,0.031 0.07433,0.0638 0.109,0.0984c0.03467,0.0346 0.06767,0.07083 0.099,0.1087c0.03133,0.03787 0.06067,0.07717 0.088,0.1179c0.028,0.04073 0.05367,0.08273 0.077,0.126c0.02333,0.0432 0.04433,0.08747 0.063,0.1328c0.01867,0.04533 0.03533,0.09147 0.05,0.1384c0.01467,0.04693 0.02667,0.0945 0.036,0.1427c0.01,0.04813 0.01767,0.09663 0.023,0.1455c0.00467,0.04887 0.007,0.09787 0.007,0.147c0.00067,0.04913 -0.00133,0.09813 -0.006,0.147c-0.00467,0.04893 -0.01167,0.0975 -0.021,0.1457c-0.00933,0.04827 -0.02133,0.09593 -0.036,0.143c-0.014,0.04707 -0.03033,0.0933 -0.049,0.1387c-0.01867,0.04547 -0.03933,0.08993 -0.062,0.1334c-0.02333,0.0434 -0.04833,0.08557 -0.075,0.1265c-0.02733,0.04093 -0.05667,0.08047 -0.088,0.1186c-0.03067,0.03807 -0.06333,0.07453 -0.098,0.1094c-0.03467,0.03487 -0.071,0.06797 -0.109,0.0993c-0.03733,0.03127 -0.07667,0.06063 -0.118,0.0881c-0.04067,0.02747 -0.08267,0.05287 -0.126,0.0762c-0.04267,0.02333 -0.08667,0.04447 -0.132,0.0634c-0.04533,0.019 -0.09167,0.0357 -0.139,0.0501c-0.04667,0.01447 -0.094,0.02657 -0.142,0.0363c-0.04867,0.0098 -0.09733,0.0172 -0.146,0.0222c-0.04867,0.005 -0.09767,0.0076 -0.147,0.0078z"></path><g opacity="1"  transform="translate(517.5 33.5)  rotate(0)"><path id="矩形" fill-rule="evenodd" style="fill:#1561BA" opacity="1" d="M56.93 8.52967e-16L52 -8.04L43 -8.04L47.93 3.01875e-16L56.93 8.52967e-16Z"></path><path id="矩形备份 3" fill-rule="evenodd" style="fill:#1561BA" opacity="1" d="M42.5008 8.52967e-16L37.5708 -8.04L28.5708 -8.04L33.5008 3.01875e-16L42.5008 8.52967e-16Z"></path><path id="矩形备份 4" fill-rule="evenodd" style="fill:#1561BA" opacity="1" d="M28.5008 8.52967e-16L23.5708 -8.04L14.5708 -8.04L19.5008 3.01875e-16L28.5008 8.52967e-16Z"></path><path id="矩形备份 5" fill-rule="evenodd" style="fill:#1561BA" opacity="1" d="M14.5008 8.52967e-16L9.5708 -8.04L0.570801 -8.04L5.5008 3.01875e-16L14.5008 8.52967e-16Z"></path></g></g><path id="矩形" fill-rule="evenodd" fill="url(#linear_7)" opacity="1" d="M3 93.2L334.17 93.2L368.17 58.1L334.17 23L3 23L3 93.2Z"></path><path id="矩形" style="fill:url(#linear_8); opacity:100" d="M3,92.3h331.17v0.9l-0.646,-0.6262l34,-35.1l0.646,0.6262l-0.646,0.6262l-34,-35.1l0.646,-0.6262v0.9h-331.17v-0.9h0.9v70.2h-0.9zM2.1,94.1v-72h332.451l34.872,36l-34.872,36h-331.551z"></path></g><g opacity="1"  transform="translate(1289 0)  rotate(0)"><g opacity="1"  transform="translate(0 0)  rotate(0)"><path id="矩形" fill-rule="evenodd" fill="url(#linear_9)" opacity="1" d="M0 50.47L0 60L262.84 60L297.82 23L630.17 23L630.17 0L38.5 0L0 50.47Z"></path><path id="矩形" fill-rule="evenodd" fill="url(#linear_10)" opacity="1" d="M41 38L323 38L323 20L53.44 20L41 38Z"></path><path id="路径 5" style="fill:url(#linear_11); opacity:100" d="M10.8078,37.7397l29.2003,-38.2397h590.1919c0.04933,0 0.09833,0.00241 0.147,0.00722c0.04867,0.00482 0.09733,0.01202 0.146,0.0216c0.048,0.00958 0.09533,0.02151 0.142,0.03577c0.04733,0.01426 0.09367,0.03079 0.139,0.04959c0.04533,0.0188 0.08967,0.03978 0.133,0.06294c0.04333,0.02316 0.08533,0.04838 0.126,0.07568c0.04133,0.02729 0.081,0.05652 0.119,0.08769c0.03733,0.03117 0.07367,0.06412 0.109,0.09886c0.03467,0.03474 0.06733,0.07109 0.098,0.10907c0.03133,0.03798 0.06067,0.07739 0.088,0.11823c0.02733,0.04085 0.05267,0.08293 0.076,0.12626c0.02333,0.04333 0.04433,0.08768 0.063,0.13307c0.01867,0.04539 0.035,0.09159 0.049,0.1386c0.01467,0.04701 0.02667,0.09461 0.036,0.14279c0.01,0.04818 0.01733,0.09672 0.022,0.14561c0.00467,0.04889 0.007,0.0979 0.007,0.14703c0,0.04913 -0.00233,0.09814 -0.007,0.14703c-0.00467,0.04889 -0.012,0.09742 -0.022,0.14561c-0.00933,0.04818 -0.02133,0.09578 -0.036,0.14279c-0.014,0.04701 -0.03033,0.09321 -0.049,0.1386c-0.01867,0.04539 -0.03967,0.08974 -0.063,0.13307c-0.02333,0.04332 -0.04867,0.08541 -0.076,0.12626c-0.02733,0.04085 -0.05667,0.08026 -0.088,0.11823c-0.03067,0.03797 -0.06333,0.07433 -0.098,0.10907c-0.03533,0.03474 -0.07167,0.06769 -0.109,0.09886c-0.038,0.03116 -0.07767,0.06039 -0.119,0.08768c-0.04067,0.02729 -0.08267,0.05252 -0.126,0.07568c-0.04333,0.02316 -0.08767,0.04414 -0.133,0.06294c-0.04533,0.0188 -0.09167,0.03533 -0.139,0.04959c-0.04667,0.01426 -0.094,0.02618 -0.142,0.03577c-0.04867,0.00958 -0.09733,0.01678 -0.146,0.0216c-0.04867,0.00481 -0.09767,0.00722 -0.147,0.00722h-589.45v-1.5l1.1922,0.91035l-28.75,37.65005c-0.02987,0.039 -0.06153,0.07647 -0.095,0.1124c-0.03353,0.03593 -0.0687,0.07013 -0.1055,0.1026c-0.03687,0.03253 -0.07523,0.06313 -0.1151,0.0918c-0.03987,0.02873 -0.08107,0.05543 -0.1236,0.0801c-0.04247,0.02467 -0.08603,0.04717 -0.1307,0.0675c-0.04473,0.0204 -0.09033,0.03857 -0.1368,0.0545c-0.04647,0.01587 -0.09363,0.02943 -0.1415,0.0407c-0.0478,0.01127 -0.09603,0.02017 -0.1447,0.0267c-0.04873,0.00653 -0.09763,0.01067 -0.1467,0.0124c-0.04913,0.00173 -0.0982,0.00103 -0.1472,-0.0021c-0.049,-0.00307 -0.09777,-0.00857 -0.1463,-0.0165c-0.04847,-0.00787 -0.09643,-0.0181 -0.1439,-0.0307c-0.04753,-0.0126 -0.0943,-0.0275 -0.1403,-0.0447c-0.046,-0.0172 -0.09107,-0.0366 -0.1352,-0.0582c-0.04407,-0.02167 -0.087,-0.0454 -0.1288,-0.0712c-0.0418,-0.02587 -0.08223,-0.0537 -0.1213,-0.0835c-0.039,-0.02987 -0.07647,-0.06153 -0.1124,-0.095c-0.03593,-0.03353 -0.07013,-0.0687 -0.1026,-0.1055c-0.03253,-0.03687 -0.06313,-0.07523 -0.0918,-0.1151c-0.02873,-0.03987 -0.05543,-0.08107 -0.0801,-0.1236c-0.02467,-0.04247 -0.04717,-0.08603 -0.0675,-0.1307c-0.0204,-0.04473 -0.03857,-0.09033 -0.0545,-0.1368c-0.01587,-0.04647 -0.02943,-0.09363 -0.0407,-0.1415c-0.01127,-0.0478 -0.02017,-0.09603 -0.0267,-0.1447c-0.00653,-0.04873 -0.01067,-0.09763 -0.0124,-0.1467c-0.00173,-0.04913 -0.00103,-0.0982 0.0021,-0.1472c0.00307,-0.049 0.00857,-0.09777 0.0165,-0.1463c0.00787,-0.04847 0.0181,-0.09643 0.0307,-0.1439c0.0126,-0.04753 0.0275,-0.0943 0.0447,-0.1403c0.0172,-0.046 0.0366,-0.09107 0.0582,-0.1352c0.02167,-0.04407 0.0454,-0.087 0.0712,-0.1288c0.02587,-0.0418 0.0537,-0.0822 0.0835,-0.1212z"></path><path id="路径 6" style="fill:url(#linear_12); opacity:100" d="M2.35066,58.5l263.00034,-0.5c0.04867,-0.00007 0.09767,0.00223 0.147,0.0069c0.04867,0.00473 0.097,0.01187 0.145,0.0214c0.04867,0.00947 0.09633,0.0213 0.143,0.0355c0.04733,0.01413 0.09367,0.03057 0.139,0.0493c0.04533,0.01873 0.08967,0.03963 0.133,0.0627c0.04333,0.02307 0.08567,0.0482 0.127,0.0754c0.04067,0.0272 0.08,0.05637 0.118,0.0875c0.038,0.03107 0.07433,0.06393 0.109,0.0986c0.03467,0.03467 0.06767,0.07097 0.099,0.1089c0.03133,0.03793 0.06067,0.0773 0.088,0.1181c0.02733,0.0408 0.05267,0.08283 0.076,0.1261c0.02333,0.04327 0.04433,0.08757 0.063,0.1329c0.01933,0.0454 0.036,0.09157 0.05,0.1385c0.01467,0.047 0.02667,0.0946 0.036,0.1428c0.01,0.04813 0.01733,0.09663 0.022,0.1455c0.00467,0.04893 0.00733,0.09793 0.008,0.147c0,0.04913 -0.00233,0.09817 -0.007,0.1471c-0.00467,0.04887 -0.012,0.0974 -0.022,0.1456c-0.00933,0.0482 -0.021,0.09583 -0.035,0.1429c-0.014,0.04707 -0.03067,0.0933 -0.05,0.1387c-0.01867,0.0454 -0.03933,0.0898 -0.062,0.1332c-0.02333,0.04333 -0.04867,0.08547 -0.076,0.1264c-0.02733,0.04087 -0.05633,0.08033 -0.087,0.1184c-0.03133,0.038 -0.06433,0.0744 -0.099,0.1092c-0.03467,0.0348 -0.071,0.06783 -0.109,0.0991c-0.038,0.03127 -0.07733,0.06057 -0.118,0.0879c-0.04067,0.0274 -0.08267,0.0527 -0.126,0.0759c-0.04333,0.02327 -0.08767,0.04433 -0.133,0.0632c-0.04533,0.01887 -0.09133,0.0355 -0.138,0.0499c-0.04733,0.01433 -0.095,0.02633 -0.143,0.036c-0.048,0.00967 -0.09667,0.01697 -0.146,0.0219c-0.04867,0.00493 -0.09767,0.00743 -0.147,0.0075l-262.99963,0.5c-0.04913,0.00007 -0.09814,-0.00223 -0.14704,-0.0069c-0.0489,-0.00473 -0.09745,-0.01187 -0.14565,-0.0214c-0.0482,-0.00947 -0.09582,-0.0213 -0.14286,-0.0355c-0.04704,-0.01413 -0.09327,-0.03057 -0.13869,-0.0493c-0.04543,-0.01873 -0.08982,-0.03963 -0.13319,-0.0627c-0.04337,-0.02307 -0.08551,-0.0482 -0.12641,-0.0754c-0.0409,-0.0272 -0.08037,-0.05637 -0.1184,-0.0875c-0.03803,-0.03107 -0.07445,-0.06393 -0.10926,-0.0986c-0.0348,-0.03467 -0.06782,-0.07097 -0.09906,-0.1089c-0.03124,-0.03793 -0.06054,-0.0773 -0.08791,-0.1181c-0.02737,-0.0408 -0.05268,-0.08283 -0.07592,-0.1261c-0.02324,-0.04327 -0.0443,-0.08757 -0.06319,-0.1329c-0.01889,-0.0454 -0.0355,-0.09157 -0.04986,-0.1385c-0.01435,-0.047 -0.02636,-0.0946 -0.03604,-0.1428c-0.00968,-0.04813 -0.01697,-0.09663 -0.02188,-0.1455c-0.00491,-0.04893 -0.00741,-0.09793 -0.0075,-0.147c-0.00009,-0.04913 0.00222,-0.09817 0.00694,-0.1471c0.00472,-0.04887 0.01183,-0.0974 0.02132,-0.1456c0.00949,-0.0482 0.02132,-0.09583 0.0355,-0.1429c0.01417,-0.04707 0.03061,-0.0933 0.04933,-0.1387c0.01871,-0.0454 0.03961,-0.0898 0.06268,-0.1332c0.02308,-0.04333 0.04823,-0.08547 0.07544,-0.1264c0.02721,-0.04087 0.05637,-0.08033 0.08746,-0.1184c0.03109,-0.038 0.06398,-0.0744 0.09865,-0.1092c0.03467,-0.03487 0.07097,-0.0679 0.10888,-0.0991c0.03792,-0.03127 0.07728,-0.06057 0.11807,-0.0879c0.04079,-0.0274 0.08283,-0.0527 0.12612,-0.0759c0.04328,-0.02327 0.0876,-0.04433 0.13295,-0.0632c0.04535,-0.01893 0.09151,-0.03557 0.1385,-0.0499c0.04699,-0.01433 0.09456,-0.02633 0.14272,-0.036c0.04817,-0.00967 0.09669,-0.01697 0.14557,-0.0219c0.04888,-0.00493 0.09788,-0.00743 0.14701,-0.0075z"></path><path  id="路径 7" style="fill:#05274F; opacity:1;" d="M21.6182,47.6919l67,0.3081c0.04913,0.00027 0.09813,0.0029 0.147,0.0079c0.04887,0.00507 0.09737,0.0125 0.1455,0.0223c0.04813,0.0098 0.09567,0.02193 0.1426,0.0364c0.047,0.01447 0.09313,0.0312 0.1384,0.0502c0.04533,0.019 0.0896,0.0402 0.1328,0.0636c0.0432,0.02333 0.08517,0.04873 0.1259,0.0762c0.04073,0.02753 0.08,0.05697 0.1178,0.0883c0.03787,0.03133 0.07407,0.06443 0.1086,0.0993c0.0346,0.03493 0.0674,0.07147 0.0984,0.1096c0.031,0.03807 0.06003,0.0776 0.0871,0.1186c0.02713,0.04093 0.05217,0.08313 0.0751,0.1266c0.023,0.0434 0.0438,0.08787 0.0624,0.1334c0.0186,0.04547 0.0349,0.09173 0.0489,0.1388c0.01407,0.04707 0.02577,0.0947 0.0351,0.1429c0.0094,0.04827 0.0164,0.09683 0.021,0.1457c0.0046,0.04893 0.00677,0.09797 0.0065,0.1471c-0.0002,0.04913 -0.00283,0.09813 -0.0079,0.147c-0.00507,0.04887 -0.0125,0.09737 -0.0223,0.1455c-0.0098,0.04813 -0.02193,0.09567 -0.0364,0.1426c-0.01447,0.04693 -0.0312,0.09307 -0.0502,0.1384c-0.019,0.04527 -0.0402,0.08953 -0.0636,0.1328c-0.02333,0.0432 -0.04873,0.08517 -0.0762,0.1259c-0.02747,0.04073 -0.05687,0.08 -0.0882,0.1178c-0.0314,0.03787 -0.06453,0.07407 -0.0994,0.1086c-0.03487,0.0346 -0.07137,0.0674 -0.1095,0.0984c-0.03813,0.031 -0.0777,0.06003 -0.1187,0.0871c-0.04093,0.02713 -0.08313,0.05217 -0.1266,0.0751c-0.0434,0.023 -0.08783,0.04377 -0.1333,0.0623c-0.04547,0.0186 -0.09177,0.03493 -0.1389,0.049c-0.04707,0.01407 -0.0947,0.02577 -0.1429,0.0351c-0.0482,0.0094 -0.09677,0.01637 -0.1457,0.0209c-0.04893,0.0046 -0.09797,0.0068 -0.1471,0.0066l-67,-0.3081c-0.04913,-0.00027 -0.09813,-0.0029 -0.147,-0.0079c-0.04887,-0.00507 -0.09737,-0.0125 -0.1455,-0.0223c-0.04813,-0.0098 -0.09567,-0.02193 -0.1426,-0.0364c-0.04693,-0.01447 -0.09307,-0.0312 -0.1384,-0.0502c-0.04527,-0.01907 -0.0895,-0.04027 -0.1327,-0.0636c-0.04327,-0.02333 -0.08527,-0.04877 -0.126,-0.0763c-0.04067,-0.02747 -0.07993,-0.05687 -0.1178,-0.0882c-0.0378,-0.03133 -0.074,-0.06443 -0.1086,-0.0993c-0.0346,-0.03493 -0.0674,-0.07147 -0.0984,-0.1096c-0.03093,-0.03807 -0.05997,-0.0776 -0.0871,-0.1186c-0.02713,-0.041 -0.05217,-0.0832 -0.0751,-0.1266c-0.02293,-0.0434 -0.0437,-0.08787 -0.0623,-0.1334c-0.0186,-0.04547 -0.03493,-0.09173 -0.049,-0.1388c-0.014,-0.04707 -0.0257,-0.0947 -0.0351,-0.1429c-0.00933,-0.04827 -0.0163,-0.09683 -0.0209,-0.1457c-0.0046,-0.04893 -0.0068,-0.09797 -0.0066,-0.1471c0.00027,-0.04913 0.0029,-0.09813 0.0079,-0.147c0.00507,-0.04887 0.0125,-0.09737 0.0223,-0.1455c0.0098,-0.04813 0.02193,-0.09567 0.0364,-0.1426c0.01447,-0.04693 0.03123,-0.09307 0.0503,-0.1384c0.019,-0.04527 0.04017,-0.08953 0.0635,-0.1328c0.02333,-0.0432 0.04877,-0.08517 0.0763,-0.1259c0.02747,-0.04073 0.05687,-0.08 0.0882,-0.1178c0.03133,-0.03787 0.06447,-0.07407 0.0994,-0.1086c0.03487,-0.0346 0.07137,-0.0674 0.1095,-0.0984c0.03813,-0.031 0.07767,-0.06003 0.1186,-0.0871c0.041,-0.02713 0.0832,-0.05217 0.1266,-0.0751c0.04347,-0.023 0.08793,-0.0438 0.1334,-0.0624c0.04547,-0.01853 0.09173,-0.03483 0.1388,-0.0489c0.04707,-0.01407 0.09473,-0.02577 0.143,-0.0351c0.0482,-0.0094 0.09677,-0.01637 0.1457,-0.0209c0.04887,-0.0046 0.09787,-0.0068 0.147,-0.0066z"></path><path  id="路径 7" style="fill:#182C4F; opacity:1;" d="M111.758,47.6919l56,0.3081c0.04933,0.00027 0.09833,0.00297 0.147,0.0081c0.04933,0.00507 0.098,0.01253 0.146,0.0224c0.048,0.0098 0.09533,0.02197 0.142,0.0365c0.04733,0.01453 0.09367,0.03133 0.139,0.0504c0.04533,0.019 0.08933,0.0402 0.132,0.0636c0.04333,0.0234 0.08533,0.04887 0.126,0.0764c0.04067,0.02753 0.08,0.05697 0.118,0.0883c0.038,0.0314 0.074,0.06457 0.108,0.0995c0.03467,0.03493 0.06767,0.07147 0.099,0.1096c0.03067,0.03813 0.05967,0.0777 0.087,0.1187c0.02667,0.041 0.05167,0.08323 0.075,0.1267c0.02267,0.04347 0.04333,0.08793 0.062,0.1334c0.01867,0.04547 0.035,0.09177 0.049,0.1389c0.014,0.04707 0.02567,0.09473 0.035,0.143c0.00933,0.0482 0.01633,0.09677 0.021,0.1457c0.004,0.04893 0.006,0.09797 0.006,0.1471c0,0.04907 -0.00267,0.09803 -0.008,0.1469c-0.00533,0.04887 -0.01267,0.09737 -0.022,0.1455c-0.01,0.04813 -0.02233,0.09567 -0.037,0.1426c-0.01467,0.04693 -0.03133,0.09303 -0.05,0.1383c-0.01933,0.04533 -0.04067,0.0896 -0.064,0.1328c-0.02333,0.0432 -0.04867,0.08513 -0.076,0.1258c-0.028,0.04067 -0.05767,0.07993 -0.089,0.1178c-0.03133,0.0378 -0.06433,0.07397 -0.099,0.1085c-0.03533,0.03453 -0.072,0.06727 -0.11,0.0982c-0.038,0.031 -0.07767,0.06003 -0.119,0.0871c-0.04067,0.02707 -0.08267,0.05203 -0.126,0.0749c-0.04333,0.02293 -0.088,0.04367 -0.134,0.0622c-0.04533,0.0186 -0.09133,0.0349 -0.138,0.0489c-0.04733,0.014 -0.095,0.02567 -0.143,0.035c-0.04867,0.00927 -0.09733,0.0162 -0.146,0.0208c-0.04933,0.00453 -0.09833,0.00667 -0.147,0.0064l-56,-0.3081c-0.04933,-0.00027 -0.09833,-0.00297 -0.147,-0.0081c-0.04933,-0.00507 -0.098,-0.01253 -0.146,-0.0224c-0.048,-0.0098 -0.09533,-0.02197 -0.142,-0.0365c-0.04733,-0.01453 -0.09367,-0.03133 -0.139,-0.0504c-0.04533,-0.019 -0.08933,-0.0402 -0.132,-0.0636c-0.04333,-0.0234 -0.08533,-0.04887 -0.126,-0.0764c-0.04067,-0.02753 -0.08,-0.05697 -0.118,-0.0883c-0.038,-0.0314 -0.074,-0.06457 -0.108,-0.0995c-0.03467,-0.03493 -0.06767,-0.07147 -0.099,-0.1096c-0.03067,-0.03813 -0.05967,-0.0777 -0.087,-0.1187c-0.02667,-0.041 -0.05167,-0.08323 -0.075,-0.1267c-0.02267,-0.04347 -0.04333,-0.08793 -0.062,-0.1334c-0.01867,-0.04553 -0.035,-0.09183 -0.049,-0.1389c-0.014,-0.04707 -0.02567,-0.09473 -0.035,-0.143c-0.00933,-0.0482 -0.01633,-0.09677 -0.021,-0.1457c-0.004,-0.04893 -0.006,-0.09797 -0.006,-0.1471c0,-0.04907 0.00267,-0.09803 0.008,-0.1469c0.00533,-0.04887 0.01267,-0.09737 0.022,-0.1455c0.01,-0.04813 0.02233,-0.09567 0.037,-0.1426c0.01467,-0.04693 0.03133,-0.09303 0.05,-0.1383c0.01933,-0.04533 0.04067,-0.0896 0.064,-0.1328c0.02333,-0.0432 0.04867,-0.08513 0.076,-0.1258c0.028,-0.04073 0.05767,-0.08 0.089,-0.1178c0.03133,-0.0378 0.06433,-0.07397 0.099,-0.1085c0.03533,-0.03453 0.072,-0.06727 0.11,-0.0982c0.038,-0.031 0.07767,-0.06003 0.119,-0.0871c0.04067,-0.02707 0.08267,-0.05207 0.126,-0.075c0.04333,-0.02287 0.088,-0.0436 0.134,-0.0622c0.04533,-0.01853 0.09133,-0.0348 0.138,-0.0488c0.04733,-0.014 0.095,-0.02567 0.143,-0.035c0.04867,-0.00927 0.09733,-0.0162 0.146,-0.0208c0.04933,-0.00453 0.09833,-0.00667 0.147,-0.0064z"></path><path id="路径 8" style="fill:url(#linear_13); opacity:100" d="M192.187,47.6919l81,0.3081c0.04933,0.0002 0.09833,0.0028 0.147,0.0078c0.04933,0.005 0.098,0.01237 0.146,0.0221c0.048,0.0098 0.09567,0.02193 0.143,0.0364c0.04667,0.0144 0.09267,0.0311 0.138,0.0501c0.04533,0.01893 0.08967,0.04007 0.133,0.0634c0.04333,0.02333 0.08533,0.04873 0.126,0.0762c0.04067,0.0274 0.08,0.05677 0.118,0.0881c0.03733,0.03133 0.07333,0.06443 0.108,0.0993c0.03467,0.03487 0.06767,0.07133 0.099,0.1094c0.03067,0.03813 0.05967,0.07767 0.087,0.1186c0.02733,0.04093 0.05233,0.0831 0.075,0.1265c0.02333,0.04347 0.04433,0.0879 0.063,0.1333c0.01867,0.04547 0.035,0.09173 0.049,0.1388c0.014,0.04707 0.02567,0.09473 0.035,0.143c0.00933,0.0482 0.01633,0.09677 0.021,0.1457c0.00467,0.04887 0.007,0.09787 0.007,0.147c-0.00067,0.04913 -0.00333,0.09813 -0.008,0.147c-0.00533,0.04887 -0.01267,0.09737 -0.022,0.1455c-0.01,0.04813 -0.02233,0.0957 -0.037,0.1427c-0.014,0.04693 -0.03067,0.09307 -0.05,0.1384c-0.01867,0.04533 -0.03967,0.0896 -0.063,0.1328c-0.02333,0.04327 -0.04867,0.08527 -0.076,0.126c-0.028,0.04073 -0.05733,0.08003 -0.088,0.1179c-0.03133,0.03787 -0.06467,0.0741 -0.1,0.1087c-0.03467,0.0346 -0.071,0.0674 -0.109,0.0984c-0.038,0.03107 -0.07767,0.06017 -0.119,0.0873c-0.04067,0.02713 -0.08267,0.0522 -0.126,0.0752c-0.04333,0.02293 -0.088,0.04373 -0.134,0.0624c-0.04533,0.0186 -0.09133,0.03497 -0.138,0.0491c-0.04733,0.01407 -0.095,0.0258 -0.143,0.0352c-0.04867,0.0094 -0.09733,0.0164 -0.146,0.021c-0.04867,0.00467 -0.09767,0.0069 -0.147,0.0067l-81,-0.3081c-0.04933,-0.0002 -0.09833,-0.0028 -0.147,-0.0078c-0.04867,-0.005 -0.09733,-0.0124 -0.146,-0.0222c-0.048,-0.00973 -0.09533,-0.02183 -0.142,-0.0363c-0.04733,-0.0144 -0.09367,-0.0311 -0.139,-0.0501c-0.04533,-0.01893 -0.08933,-0.04007 -0.132,-0.0634c-0.04333,-0.02333 -0.08533,-0.04873 -0.126,-0.0762c-0.04133,-0.02747 -0.08067,-0.05683 -0.118,-0.0881c-0.038,-0.03133 -0.07433,-0.06443 -0.109,-0.0993c-0.03467,-0.03487 -0.06733,-0.07133 -0.098,-0.1094c-0.03133,-0.03813 -0.06067,-0.07767 -0.088,-0.1186c-0.02667,-0.04093 -0.05167,-0.0831 -0.075,-0.1265c-0.02267,-0.04347 -0.04333,-0.08793 -0.062,-0.1334c-0.01867,-0.0454 -0.035,-0.09163 -0.049,-0.1387c-0.01467,-0.04707 -0.02667,-0.09473 -0.036,-0.143c-0.00933,-0.0482 -0.01633,-0.09677 -0.021,-0.1457c-0.00467,-0.04887 -0.00667,-0.09787 -0.006,-0.147c0,-0.04913 0.00233,-0.09813 0.007,-0.147c0.00533,-0.04887 0.013,-0.09737 0.023,-0.1455c0.00933,-0.0482 0.02133,-0.09577 0.036,-0.1427c0.01467,-0.04693 0.03133,-0.09307 0.05,-0.1384c0.01867,-0.04533 0.03967,-0.0896 0.063,-0.1328c0.02333,-0.04327 0.049,-0.08527 0.077,-0.126c0.02733,-0.04073 0.05667,-0.08003 0.088,-0.1179c0.03133,-0.03787 0.06433,-0.0741 0.099,-0.1087c0.03467,-0.0346 0.071,-0.0674 0.109,-0.0984c0.03867,-0.03107 0.07833,-0.06017 0.119,-0.0873c0.04067,-0.02713 0.083,-0.0522 0.127,-0.0752c0.04333,-0.023 0.08767,-0.0438 0.133,-0.0624c0.04533,-0.0186 0.09167,-0.03497 0.139,-0.0491c0.04667,-0.01407 0.09433,-0.0258 0.143,-0.0352c0.048,-0.0094 0.09633,-0.0164 0.145,-0.021c0.04933,-0.00467 0.09833,-0.0069 0.147,-0.0067z"></path><g opacity="1"  transform="translate(113.5 24.5)  rotate(0)"><path id="矩形" fill-rule="evenodd" style="fill:#1561BA" opacity="1" d="M-43 0.958252L-52 0.958252L-56.93 8.99825L-47.93 8.99825L-43 0.958252Z"></path><path id="矩形备份 3" fill-rule="evenodd" style="fill:#1561BA" opacity="1" d="M-28.5708 0.958252L-37.5708 0.958252L-42.5008 8.99825L-33.5008 8.99825L-28.5708 0.958252Z"></path><path id="矩形备份 4" fill-rule="evenodd" style="fill:#1561BA" opacity="1" d="M-14.5708 0.958252L-23.5708 0.958252L-28.5008 8.99825L-19.5008 8.99825L-14.5708 0.958252Z"></path><path id="矩形备份 5" fill-rule="evenodd" style="fill:#1561BA" opacity="1" d="M-0.570801 0.958252L-9.5708 0.958252L-14.5008 8.99825L-5.5008 8.99825L-0.570801 0.958252Z"></path></g></g><path id="矩形" fill-rule="evenodd" fill="url(#linear_14)" opacity="1" d="M296.828 23L262.828 58.1L296.828 93.2L627.998 93.2L627.998 23L296.828 23Z"></path><path id="矩形" style="fill:url(#linear_15); opacity:100" d="M297.475,23.6262l-34,35.1l-0.647,-0.6262l0.647,-0.6262l34,35.1l-0.647,0.6262v-0.9h331.17v0.9h-0.9v-70.2h0.9v0.9h-331.17v-0.9zM296.447,22.1h332.451v72h-332.451l-34.872,-36l34.607,-35.7262z"></path></g><g opacity="1" transform="translate(663 3)  rotate(0)"><a xlink:href="https://" xlink:title="跳转" target="_blank"><text><tspan x="4.193998000000022" y="37.8" font-size="36" line-height="0" fill="#FFFFFF" opacity="1" font-family="AlibabaPuHuiTi-Regular" font-weight="Regular" letter-spacing="9.591667"  >茶叶病害监测系统可视化平</tspan><tspan x="544.382002" y="37.8" font-size="36" line-height="0" fill="#FFFFFF" opacity="1" font-family="AlibabaPuHuiTi-Regular" font-weight="Regular" letter-spacing="0" >台</tspan></text></a></g><g opacity="1"  transform="translate(3 21)  rotate(0)"></g><g opacity="1"  transform="translate(578 39)  rotate(0)"><g opacity="1"  transform="translate(0 0)  rotate(0)"><g opacity="1"  transform="translate(0 0)  rotate(0)"><g opacity="1"  transform="translate(0 0)  rotate(0)"><path id="椭圆形备份" fill-rule="evenodd" fill="url(#linear_16)" opacity="1" d="M60 30C60 13.43 46.57 0 30 0C13.43 0 0 13.43 0 30C0 46.57 13.43 60 30 60C46.57 60 60 46.57 60 30Z"></path><path  id="椭圆形备份 2" style="fill:#111523; opacity:1;" d="M54,30c0,-13.2548 -10.7452,-24 -24,-24c-13.2548,0 -24,10.7452 -24,24c0,13.2548 10.7452,24 24,24c13.2548,0 24,-10.7452 24,-24zM66,30c0,19.8822 -16.1178,36 -36,36c-19.8822,0 -36,-16.1178 -36,-36c0,-19.8822 16.1178,-36 36,-36c19.8822,0 36,16.1178 36,36z"></path></g><g opacity="1"  transform="translate(0 0)  rotate(0)"><path id="矩形" fill-rule="evenodd" style="fill:#18243B" opacity="0.01" d="M0 60L60 60L60 0L0 0L0 60Z"></path><g opacity="1"  transform="translate(8 8)  rotate(0)"><g opacity="1"  transform="translate(0 0)  rotate(0)"><path  id="椭圆形备份 3" style="fill:#437DC6; opacity:0.5;" d="M41,21.5c0,-10.7696 -8.7304,-19.5 -19.5,-19.5c-10.7696,0 -19.5,8.7304 -19.5,19.5c0,10.7696 8.7304,19.5 19.5,19.5c10.7696,0 19.5,-8.7304 19.5,-19.5zM45,21.5c0,12.9787 -10.5213,23.5 -23.5,23.5c-12.97869,0 -23.5,-10.5213 -23.5,-23.5c0,-12.97869 10.52131,-23.5 23.5,-23.5c12.9787,0 23.5,10.52131 23.5,23.5z"></path></g></g></g></g><g opacity="1"  transform="translate(14 14)  rotate(0)"><path id="矩形" fill-rule="evenodd" style="fill:#FFFFFF" opacity="0" d="M0 32L32 32L32 0L0 0L0 32Z"></path><path id="路径" fill-rule="evenodd" fill="url(#linear_17)" opacity="1" d="M12.1888 24.8058C12.1888 22.6658 13.8388 20.7958 15.9788 20.7358C18.1888 20.6658 19.9988 22.4358 19.9988 24.6358L19.9988 28.5458C19.9988 28.9058 20.2888 29.1958 20.6588 29.1958L27.8188 29.1958C28.1788 29.1958 28.4688 28.9058 28.4688 28.5458L28.4688 11.2858C28.4788 11.0758 28.3788 10.8858 28.2188 10.7658L16.4788 2.11584C16.2488 1.94584 15.9488 1.94584 15.7188 2.10584L3.34885 10.7658C3.16885 10.8858 3.06885 11.0858 3.06885 11.2958L3.06885 28.5458C3.06885 28.9058 3.35885 29.1958 3.71885 29.1958L11.5388 29.1958C11.8988 29.1958 12.1888 28.9058 12.1888 28.5458L12.1888 24.8058Z"></path></g></g><g opacity="1"  transform="translate(705 0)  rotate(0)"><g opacity="1"  transform="translate(0 0)  rotate(0)"><g opacity="1"  transform="translate(0 0)  rotate(0)"><path id="椭圆形备份" fill-rule="evenodd" fill="url(#linear_18)" opacity="1" d="M60 30C60 13.43 46.57 0 30 0C13.43 0 0 13.43 0 30C0 46.57 13.43 60 30 60C46.57 60 60 46.57 60 30Z"></path><path  id="椭圆形备份 2" style="fill:#111523; opacity:1;" d="M54,30c0,-13.2548 -10.7452,-24 -24,-24c-13.2548,0 -24,10.7452 -24,24c0,13.2548 10.7452,24 24,24c13.2548,0 24,-10.7452 24,-24zM66,30c0,19.8822 -16.1178,36 -36,36c-19.8822,0 -36,-16.1178 -36,-36c0,-19.8822 16.1178,-36 36,-36c19.8822,0 36,16.1178 36,36z"></path></g><g opacity="1"  transform="translate(0 0)  rotate(0)"><path id="矩形" fill-rule="evenodd" style="fill:#18243B" opacity="0.01" d="M0 60L60 60L60 0L0 0L0 60Z"></path><g opacity="1"  transform="translate(8 8)  rotate(0)"><g opacity="1"  transform="translate(0 0)  rotate(0)"><path  id="椭圆形备份 3" style="fill:#437DC6; opacity:0.5;" d="M41,21.5c0,-10.7696 -8.7304,-19.5 -19.5,-19.5c-10.7696,0 -19.5,8.7304 -19.5,19.5c0,10.7696 8.7304,19.5 19.5,19.5c10.7696,0 19.5,-8.7304 19.5,-19.5zM45,21.5c0,12.9787 -10.5213,23.5 -23.5,23.5c-12.97869,0 -23.5,-10.5213 -23.5,-23.5c0,-12.97869 10.52131,-23.5 23.5,-23.5c12.9787,0 23.5,10.52131 23.5,23.5z"></path><path id="形状结合备份" fill-rule="evenodd" fill="url(#linear_19)" opacity="1" d="M19.94,14.26c-0.7,0.19 -1.38,0.48 -2,0.86c-1.18,0.72 -2.15,1.73 -2.82,2.94c-0.38,0.62 -0.67,1.29 -0.86,2c-0.1724,0.6453 -0.2599,1.3075 -0.2624,1.97c0.0025,0.6625 0.09,1.3247 0.2624,1.97h-0.0158c0.0052,0.02 0.0105,0.04 0.0158,0.06c0.18,0.71 0.47,1.38 0.86,2c0.72,1.16 1.74,2.11 2.94,2.76c0.62,0.38 1.29,0.67 2,0.86c1.31,0.35 2.69,0.35 4,0c0.71,-0.19 1.38,-0.48 2,-0.86c1.17,-0.68 2.14,-1.65 2.82,-2.82v0.06c0.36,-0.66 0.6,-1.38 0.74,-2.12c0.35,-1.31 0.35,-2.69 0,-4c-0.19,-0.71 -0.48,-1.38 -0.86,-2c-0.69,-1.16 -1.66,-2.13 -2.82,-2.82c-0.62,-0.38 -1.3,-0.67 -2,-0.86c-0.6453,-0.1724 -1.3075,-0.2599 -1.97,-0.2624c-0.6625,0.0025 -1.3247,0.09 -1.97,0.2624v-0.0158c-0.02,0.0052 -0.04,0.0105 -0.06,0.0158zM24.0401,10.2401c1.79,0.27 3.48,0.96 4.9599,2l0.0001,-0.0001l2.2,-2.26l2.82,2.84l-2.2495,2.1699c0.0166,0.0233 0.0331,0.0467 0.0495,0.0702c1.04,1.47 1.72,3.1599 2,4.9399h3.1801v4h-3.2293c-0.0036,0.02 -0.0072,0.0401 -0.0108,0.0601c-0.2778,1.7658 -0.9492,3.4431 -1.9752,4.9048l2.2352,2.2352l-2.82,2.82l-2.2,-2.24l-0.0484,-0.0477c-0.0238,0.016 -0.0477,0.0319 -0.0716,0.0477c-1.4535,1.0283 -3.1221,1.7047 -4.8801,1.9904v3.2295h-4v-3.2092c-0.02,-0.0035 -0.0399,-0.0071 -0.0599,-0.0107c-1.78,-0.28 -3.47,-0.96 -4.94,-2h-0.0001v0l-2.2,2.24l-2.82,-2.82l2.2837,-2.2837c-0.0079,-0.0121 -0.0158,-0.0242 -0.0236,-0.0363c-1.0283,-1.4535 -1.7047,-3.1221 -1.9904,-4.8801h-3.2497v-4h3.2294c0.0035,-0.02 0.0071,-0.0399 0.0107,-0.0599c0.28,-1.78 0.96,-3.47 2,-4.94l-0.0001,-0.0001l-2.26,-2.18l2.82,-2.84l2.2,2.26l0.0001,0.0001c1.489,-1.0522 3.1947,-1.7398 4.9999,-1.9944v-3.2457h4v3.2329c0.0134,0.0024 0.0267,0.0048 0.0401,0.0072z"></path></g><path id="矩形备份" fill-rule="evenodd" style="fill:#4A8BDD" opacity="0" d="M7 37L37 37L37 7L7 7L7 37Z"></path></g></g></g></g></g></g><defs><linearGradient id="linear_0" x1="50%" y1="0%" x2="51%" y2="90.52526595744581%" gradientUnits="objectBoundingBox"><stop offset="0" stop-color="#01527D" stop-opacity="1" /><stop offset="0.6288646941489362" stop-color="#112E57" stop-opacity="1" /><stop offset="1" stop-color="#0B3A66" stop-opacity="1" /></linearGradient><linearGradient id="linear_1" x1="50%" y1="-31.295711436170848%" x2="51%" y2="100%" gradientUnits="objectBoundingBox"><stop offset="0" stop-color="#6691FF" stop-opacity="1" /><stop offset="1" stop-color="#07246E" stop-opacity="1" /></linearGradient><linearGradient id="linear_2" x1="96.91328797456195%" y1="50%" x2="8.881784197001252e-14%" y2="50%" gradientUnits="objectBoundingBox"><stop offset="0" stop-color="#01457D" stop-opacity="1" /><stop offset="0.5442096468629298" stop-color="#0089FA" stop-opacity="0.29" /><stop offset="1" stop-color="#010E7D" stop-opacity="0.2" /></linearGradient><linearGradient id="linear_3" x1="87.40649933510642%" y1="50%" x2="0%" y2="50%" gradientUnits="objectBoundingBox"><stop offset="0" stop-color="#18344F" stop-opacity="1" /><stop offset="1" stop-color="#182C4E" stop-opacity="0" /></linearGradient><linearGradient id="linear_4" x1="5.5964967954478695%" y1="14.411914281706117%" x2="93.88029626081638%" y2="33.20239431350522%" gradientUnits="objectBoundingBox"><stop offset="0" stop-color="#66ADFF" stop-opacity="1" /><stop offset="0.5412169394440288" stop-color="#66A6FF" stop-opacity="0.19" /><stop offset="1" stop-color="#006AFF" stop-opacity="0" /></linearGradient><linearGradient id="linear_5" x1="56.347509590455935%" y1="100.00000939576239%" x2="100.68425357206299%" y2="100%" gradientUnits="objectBoundingBox"><stop offset="0" stop-color="#66A6FF" stop-opacity="1" /><stop offset="0.5412169394440288" stop-color="#033666" stop-opacity="1" /><stop offset="0.7828200478777347" stop-color="#032C66" stop-opacity="0.94" /><stop offset="1" stop-color="#033666" stop-opacity="0" /></linearGradient><linearGradient id="linear_6" x1="3.0347618645664376%" y1="50%" x2="93.88029626081638%" y2="33.20239431350522%" gradientUnits="objectBoundingBox"><stop offset="0" stop-color="#184C4F" stop-opacity="1" /><stop offset="1" stop-color="#184C4F" stop-opacity="0" /></linearGradient><linearGradient id="linear_7" x1="3.086712025438043%" y1="50%" x2="99.99999999999991%" y2="50%" gradientUnits="objectBoundingBox"><stop offset="0.0069" stop-color="#0077C7" stop-opacity="0.1" /><stop offset="0.6032172439662593" stop-color="#0037A6" stop-opacity="0.46" /><stop offset="1" stop-color="#004278" stop-opacity="1" /></linearGradient><linearGradient id="linear_8" x1="176.32580867263553%" y1="62.15797278441624%" x2="0%" y2="62.15797278441624%" gradientUnits="objectBoundingBox"><stop offset="0" stop-color="#9ED0FF" stop-opacity="1" /><stop offset="1" stop-color="#669EFF" stop-opacity="0" /></linearGradient><linearGradient id="linear_9" x1="3.086712025438043%" y1="50%" x2="99.99999999999991%" y2="50%" gradientUnits="objectBoundingBox"><stop offset="0" stop-color="#01357D" stop-opacity="1" /><stop offset="0.5442096468629298" stop-color="#0089FA" stop-opacity="0.29" /><stop offset="1" stop-color="#01457D" stop-opacity="0.2" /></linearGradient><linearGradient id="linear_10" x1="12.593500664893575%" y1="50%" x2="100%" y2="50%" gradientUnits="objectBoundingBox"><stop offset="0" stop-color="#182F4F" stop-opacity="1" /><stop offset="1" stop-color="#182C4E" stop-opacity="0" /></linearGradient><linearGradient id="linear_11" x1="5.5964967954478695%" y1="14.411914281706117%" x2="93.88029626081638%" y2="33.20239431350522%" gradientUnits="objectBoundingBox"><stop offset="0" stop-color="#66ADFF" stop-opacity="1" /><stop offset="0.5412169394440288" stop-color="#66A6FF" stop-opacity="0.19" /><stop offset="1" stop-color="#006AFF" stop-opacity="0" /></linearGradient><linearGradient id="linear_12" x1="56.347509590455935%" y1="100.00000939576239%" x2="100.68425357206299%" y2="100%" gradientUnits="objectBoundingBox"><stop offset="0" stop-color="#66A6FF" stop-opacity="1" /><stop offset="0.5412169394440288" stop-color="#033666" stop-opacity="1" /><stop offset="0.7828200478777347" stop-color="#032C66" stop-opacity="0.94" /><stop offset="1" stop-color="#033666" stop-opacity="0" /></linearGradient><linearGradient id="linear_13" x1="3.0347618645664376%" y1="50%" x2="93.88029626081638%" y2="33.20239431350522%" gradientUnits="objectBoundingBox"><stop offset="0" stop-color="#184C4F" stop-opacity="1" /><stop offset="1" stop-color="#184C4F" stop-opacity="0" /></linearGradient><linearGradient id="linear_14" x1="96.91328797456195%" y1="50%" x2="8.881784197001252e-14%" y2="50%" gradientUnits="objectBoundingBox"><stop offset="0" stop-color="#0067C7" stop-opacity="0.1" /><stop offset="0.6032172439662593" stop-color="#0056A6" stop-opacity="0.46" /><stop offset="1" stop-color="#004278" stop-opacity="1" /></linearGradient><linearGradient id="linear_15" x1="176.32580867263553%" y1="62.15797278441624%" x2="0%" y2="62.15797278441624%" gradientUnits="objectBoundingBox"><stop offset="0" stop-color="#9ED0FF" stop-opacity="1" /><stop offset="1" stop-color="#669EFF" stop-opacity="0" /></linearGradient><linearGradient id="linear_16" x1="0%" y1="50%" x2="100%" y2="50%" gradientUnits="objectBoundingBox"><stop offset="0" stop-color="#134CAD" stop-opacity="1" /><stop offset="0.4927408854166667" stop-color="#082833" stop-opacity="1" /><stop offset="1" stop-color="#1143BF" stop-opacity="1" /></linearGradient><linearGradient id="linear_17" x1="50%" y1="32.80295540625957%" x2="51%" y2="100%" gradientUnits="objectBoundingBox"><stop offset="0" stop-color="#668AFF" stop-opacity="1" /><stop offset="1" stop-color="#4174BA" stop-opacity="1" /></linearGradient><linearGradient id="linear_18" x1="0%" y1="50%" x2="100%" y2="50%" gradientUnits="objectBoundingBox"><stop offset="0" stop-color="#134CAD" stop-opacity="1" /><stop offset="0.4927408854166667" stop-color="#082833" stop-opacity="1" /><stop offset="1" stop-color="#1143BF" stop-opacity="1" /></linearGradient><linearGradient id="linear_19" x1="50%" y1="32.80295540625957%" x2="51%" y2="100%" gradientUnits="objectBoundingBox"><stop offset="0" stop-color="#668AFF" stop-opacity="1" /><stop offset="1" stop-color="#4174BA" stop-opacity="1" /></linearGradient></defs></svg>